<svg width="63" height="38" viewBox="0 0 63 38" fill="none" xmlns="http://www.w3.org/2000/svg">
<path d="M30.392 12.336L31.3407 12.0198V12.0198L30.392 12.336ZM27.368 6.816L26.5933 7.44842L26.6011 7.45772L27.368 6.816ZM22.664 3.168L22.2231 4.06555L22.2325 4.07017L22.242 4.07458L22.664 3.168ZM10.424 3.168L9.98924 2.26743L9.9831 2.27044L10.424 3.168ZM5.72 6.864L4.95306 6.22227H4.95306L5.72 6.864ZM2.648 12.432L1.70214 12.1073L1.69932 12.1158L2.648 12.432ZM2.648 26.112L1.69931 26.4282L1.70078 26.4326L2.648 26.112ZM5.624 31.584L4.84928 32.2164L4.85706 32.2257L5.624 31.584ZM10.328 35.28L9.8871 36.1776L9.89649 36.1822L9.90597 36.1866L10.328 35.28ZM22.568 35.232L22.1332 34.3314L22.1271 34.3344L22.568 35.232ZM27.32 31.536L28.0869 32.1777L27.32 31.536ZM30.344 26.016L29.3996 25.6869L29.3953 25.6998L30.344 26.016ZM23.336 23.52L22.3702 23.2609L22.3679 23.2691L22.3659 23.2775L23.336 23.52ZM21.896 26.88L22.7281 27.4347L21.896 26.88ZM19.592 29.136L20.0881 30.0042L20.0996 29.9977L20.111 29.9908L19.592 29.136ZM13.496 29.088L12.977 29.9428L12.9836 29.9468L12.9903 29.9507L13.496 29.088ZM11.192 26.832L10.36 27.3867L11.192 26.832ZM9.704 23.424L8.73816 23.6831L9.704 23.424ZM9.656 14.88L8.69016 14.6209L8.68719 14.6319L8.68448 14.643L9.656 14.88ZM11.144 11.52L11.9672 12.0877L11.9717 12.0812L11.9761 12.0747L11.144 11.52ZM13.448 9.312L13.9441 10.1802L13.9556 10.1737L13.967 10.1668L13.448 9.312ZM19.496 9.312L18.977 10.1668L18.9836 10.1708L18.9903 10.1747L19.496 9.312ZM21.848 11.568L21.0159 12.1227H21.016L21.848 11.568ZM23.336 14.976L24.3018 14.7169V14.7169L23.336 14.976ZM32.448 19.152C32.448 16.6224 32.0817 14.2427 31.3407 12.0198L29.4433 12.6522C30.1103 14.6533 30.448 16.8176 30.448 19.152H32.448ZM31.3407 12.0198C30.6006 9.79946 29.5343 7.84665 28.1349 6.17428L26.6011 7.45772C27.8257 8.92135 28.7754 10.6485 29.4433 12.6522L31.3407 12.0198ZM28.1427 6.18362C26.7662 4.49743 25.0771 3.18831 23.086 2.26142L22.242 4.07458C23.9629 4.87569 25.4098 5.99857 26.5933 7.44838L28.1427 6.18362ZM23.1049 2.27044C21.1302 1.30039 18.945 0.823999 16.568 0.823999V2.824C18.671 2.824 20.5499 3.24361 22.2231 4.06555L23.1049 2.27044ZM16.568 0.823999C14.1907 0.823999 11.9923 1.30045 9.98925 2.26745L10.8587 4.06855C12.5677 3.24355 14.4653 2.824 16.568 2.824V0.823999ZM9.9831 2.27044C8.03297 3.2284 6.35412 4.54784 4.95306 6.22227L6.48694 7.50572C7.70988 6.04416 9.16704 4.89959 10.8649 4.06555L9.9831 2.27044ZM4.95306 6.22227C3.55445 7.89379 2.4736 9.86014 1.70218 12.1073L3.59382 12.7567C4.2944 10.7159 5.26155 8.97021 6.48694 7.50572L4.95306 6.22227ZM1.69932 12.1158C0.958334 14.3387 0.592 16.7184 0.592 19.248H2.592C2.592 16.9136 2.92967 14.7493 3.59668 12.7482L1.69932 12.1158ZM0.592 19.248C0.592 21.8081 0.957903 24.204 1.69932 26.4282L3.59668 25.7958C2.9301 23.796 2.592 21.6159 2.592 19.248H0.592ZM1.70078 26.4326C2.43991 28.6164 3.48743 30.548 4.84934 32.2164L6.39866 30.9516C5.20057 29.484 4.2641 27.7676 3.59522 25.7914L1.70078 26.4326ZM4.85706 32.2257C6.25812 33.9002 7.93697 35.2196 9.8871 36.1776L10.7689 34.3824C9.07104 33.5484 7.61388 32.4038 6.39094 30.9423L4.85706 32.2257ZM9.90597 36.1866C11.9062 37.1177 14.1001 37.576 16.472 37.576V35.576C14.3639 35.576 12.4618 35.1703 10.75 34.3734L9.90597 36.1866ZM16.472 37.576C18.849 37.576 21.0342 37.0996 23.0089 36.1296L22.1271 34.3344C20.4538 35.1564 18.575 35.576 16.472 35.576V37.576ZM23.0028 36.1326C24.9855 35.1753 26.6831 33.8555 28.0869 32.1777L26.5531 30.8943C25.3329 32.3525 23.8625 33.4967 22.1333 34.3314L23.0028 36.1326ZM28.0869 32.1777C29.4863 30.5054 30.5526 28.5525 31.2927 26.3322L29.3953 25.6998C28.7274 27.7035 27.7777 29.4306 26.5531 30.8943L28.0869 32.1777ZM31.2883 26.3451C32.0647 24.1171 32.448 21.7167 32.448 19.152H30.448C30.448 21.5153 30.0953 23.6909 29.3997 25.6869L31.2883 26.3451ZM22.864 19.248C22.864 20.7077 22.6968 22.0436 22.3702 23.2609L24.3018 23.7791C24.6792 22.3724 24.864 20.8603 24.864 19.248H22.864ZM22.3659 23.2775C22.0697 24.462 21.632 25.4733 21.064 26.3253L22.7281 27.4347C23.44 26.3667 23.9623 25.138 24.3061 23.7625L22.3659 23.2775ZM21.064 26.3253C20.4968 27.176 19.8318 27.8205 19.073 28.2812L20.111 29.9908C21.1442 29.3635 22.0152 28.504 22.7281 27.4347L21.064 26.3253ZM19.0959 28.2678C18.3637 28.6861 17.5293 28.904 16.568 28.904V30.904C17.8467 30.904 19.0283 30.6099 20.0881 30.0042L19.0959 28.2678ZM16.568 28.904C15.6181 28.904 14.7699 28.6756 14.0017 28.2253L12.9903 29.9507C14.0781 30.5884 15.2779 30.904 16.568 30.904V28.904ZM14.015 28.2332C13.2562 27.7725 12.5912 27.128 12.0241 26.2773L10.36 27.3867C11.0728 28.456 11.9438 29.3155 12.977 29.9428L14.015 28.2332ZM12.0241 26.2773C11.4541 25.4223 10.9985 24.3899 10.6698 23.1649L8.73816 23.6831C9.11349 25.0821 9.64993 26.3217 10.36 27.3867L12.0241 26.2773ZM10.6698 23.1649C10.3432 21.9476 10.176 20.6117 10.176 19.152H8.176C8.176 20.7643 8.36075 22.2764 8.73816 23.6831L10.6698 23.1649ZM10.176 19.152C10.176 17.6851 10.3288 16.3416 10.6275 15.117L8.68448 14.643C8.34318 16.0424 8.176 17.5469 8.176 19.152H10.176ZM10.6218 15.1391C10.9501 13.9155 11.4038 12.9047 11.9672 12.0877L10.3208 10.9523C9.60423 11.9913 9.06586 13.2205 8.69016 14.6209L10.6218 15.1391ZM11.9761 12.0747C12.5402 11.2285 13.1981 10.6065 13.9441 10.1802L12.9519 8.44375C11.9059 9.04147 11.0278 9.89154 10.312 10.9653L11.9761 12.0747ZM13.967 10.1668C14.6958 9.72432 15.522 9.496 16.472 9.496V7.496C15.182 7.496 13.9923 7.81168 12.929 8.45721L13.967 10.1668ZM16.472 9.496C17.422 9.496 18.2482 9.72432 18.977 10.1668L20.015 8.45721C18.9518 7.81168 17.762 7.496 16.472 7.496V9.496ZM18.9903 10.1747C19.7782 10.6366 20.4538 11.2794 21.0159 12.1227L22.6801 11.0133C21.9622 9.93658 21.0698 9.0754 20.0017 8.4493L18.9903 10.1747ZM21.016 12.1227C21.5859 12.9777 22.0415 14.0101 22.3702 15.2351L24.3018 14.7169C23.9265 13.3179 23.3901 12.0783 22.68 11.0133L21.016 12.1227ZM22.3702 15.2351C22.6968 16.4524 22.864 17.7883 22.864 19.248H24.864C24.864 17.6357 24.6792 16.1236 24.3018 14.7169L22.3702 15.2351ZM52.1585 9.648L51.4959 10.397L52.1585 9.648ZM53.0705 14.88L52.1322 14.5343L52.1268 14.549L52.1218 14.5638L53.0705 14.88ZM52.0625 16.704L51.2625 16.104L51.2574 16.1108L52.0625 16.704ZM50.2865 18.672L50.9608 19.4105L50.9693 19.4027L50.9777 19.3946L50.2865 18.672ZM47.5985 20.976L46.9653 20.202L46.9645 20.2026L47.5985 20.976ZM36.4145 30.144L35.7805 29.3706L35.4145 29.6707V30.144H36.4145ZM36.4145 36H35.4145V37H36.4145V36ZM61.2785 36V37H62.2785V36H61.2785ZM61.2785 29.616H62.2785V28.616H61.2785V29.616ZM46.6385 29.616L46.0275 28.8244L43.7065 30.616H46.6385V29.616ZM52.1105 25.392L52.7216 26.1836L52.7268 26.1795L52.1105 25.392ZM55.9985 22.224L56.6493 22.9833L56.6555 22.978L56.6615 22.9726L55.9985 22.224ZM58.7345 19.248L57.9314 18.6522L57.9251 18.6606L57.919 18.6693L58.7345 19.248ZM60.3665 16.128L59.4206 15.8037L59.4177 15.8119L59.4151 15.8202L60.3665 16.128ZM60.1265 8.064L59.198 8.43539L59.202 8.44531L59.2062 8.45514L60.1265 8.064ZM57.8225 4.8L57.1393 5.53027L57.1515 5.54163L57.164 5.55257L57.8225 4.8ZM54.1745 2.688L53.8328 3.62779L53.8455 3.63241L53.8583 3.63668L54.1745 2.688ZM45.3425 2.4L45.5789 3.37167L45.5912 3.36867L45.6034 3.36536L45.3425 2.4ZM42.0785 3.744L42.593 4.60153L42.6011 4.5966L42.0785 3.744ZM39.3425 5.904L38.6354 5.19689L38.6287 5.20356L38.6222 5.21036L39.3425 5.904ZM36.8465 8.88L36.0438 8.28368L35.4704 9.05555L36.2192 9.65875L36.8465 8.88ZM42.0305 13.056L41.4032 13.8348L42.1787 14.4595L42.8066 13.6866L42.0305 13.056ZM45.3905 9.648L44.8069 8.83598L44.8007 8.8404L44.7947 8.8449L45.3905 9.648ZM48.8945 9.544C50.0481 9.544 50.8833 9.85508 51.4959 10.397L52.8211 8.899C51.7697 7.96891 50.4289 7.544 48.8945 7.544V9.544ZM51.4959 10.397C52.0539 10.8906 52.4065 11.6681 52.4065 12.912H54.4065C54.4065 11.2759 53.9271 9.87742 52.8211 8.899L51.4959 10.397ZM52.4065 12.912C52.4065 13.5083 52.312 14.0462 52.1322 14.5343L54.0088 15.2257C54.277 14.4978 54.4065 13.7237 54.4065 12.912H52.4065ZM52.1218 14.5638C51.9727 15.0113 51.6973 15.5243 51.2625 16.104L52.8625 17.304C53.3877 16.6037 53.7843 15.9007 54.0192 15.1962L52.1218 14.5638ZM51.2574 16.1108C50.853 16.6597 50.303 17.2724 49.5953 17.9494L50.9777 19.3946C51.742 18.6636 52.376 17.9643 52.8676 17.2972L51.2574 16.1108ZM49.6122 17.9335C48.8934 18.5898 48.012 19.3456 46.9653 20.202L48.2317 21.75C49.297 20.8784 50.2076 20.0982 50.9608 19.4105L49.6122 17.9335ZM46.9645 20.2026L35.7805 29.3706L37.0485 30.9174L48.2325 21.7494L46.9645 20.2026ZM35.4145 30.144V36H37.4145V30.144H35.4145ZM36.4145 37H61.2785V35H36.4145V37ZM62.2785 36V29.616H60.2785V36H62.2785ZM61.2785 28.616H46.6385V30.616H61.2785V28.616ZM47.2496 30.4076L52.7216 26.1836L51.4994 24.6004L46.0275 28.8244L47.2496 30.4076ZM52.7268 26.1795C54.2076 25.0206 55.5155 23.9551 56.6493 22.9833L55.3477 21.4647C54.2415 22.4129 52.9574 23.4594 51.4942 24.6045L52.7268 26.1795ZM56.6615 22.9726C57.8262 21.9411 58.7931 20.8933 59.55 19.8267L57.919 18.6693C57.2679 19.5867 56.4108 20.5229 55.3355 21.4754L56.6615 22.9726ZM59.5376 19.8438C60.3332 18.7715 60.9299 17.6352 61.3179 16.4358L59.4151 15.8202C59.0991 16.7968 58.6078 17.7405 57.9314 18.6522L59.5376 19.8438ZM61.3124 16.4523C61.7383 15.2103 61.9425 13.834 61.9425 12.336H59.9425C59.9425 13.654 59.7627 14.8057 59.4206 15.8037L61.3124 16.4523ZM61.9425 12.336C61.9425 10.6507 61.6497 9.09138 61.0468 7.67286L59.2062 8.45514C59.6913 9.59662 59.9425 10.8853 59.9425 12.336H61.9425ZM61.055 7.69261C60.4851 6.26802 59.6254 5.04881 58.481 4.04742L57.164 5.55257C58.0676 6.34319 58.7439 7.29997 59.198 8.43539L61.055 7.69261ZM58.5057 4.06973C57.3968 3.03237 56.0512 2.25948 54.4907 1.73932L53.8583 3.63668C55.1778 4.07652 56.2642 4.71163 57.1393 5.53027L58.5057 4.06973ZM54.5162 1.74821C52.9796 1.18942 51.2608 0.919998 49.3745 0.919998V2.92C51.0722 2.92 52.5534 3.16258 53.8328 3.62779L54.5162 1.74821ZM49.3745 0.919998C47.8015 0.919998 46.3673 1.08715 45.0816 1.43463L45.6034 3.36536C46.6857 3.07285 47.9395 2.92 49.3745 2.92V0.919998ZM45.1061 1.42833C43.8259 1.73973 42.6407 2.22655 41.5559 2.8914L42.6011 4.5966C43.5003 4.04545 44.4911 3.63626 45.5789 3.37167L45.1061 1.42833ZM41.564 2.88651C40.5278 3.50821 39.552 4.2803 38.6354 5.19689L40.0496 6.6111C40.861 5.7997 41.7092 5.13179 42.593 4.60149L41.564 2.88651ZM38.6222 5.21036C37.7564 6.10947 36.8971 7.13488 36.0438 8.28368L37.6492 9.47632C38.4599 8.38512 39.2646 7.42652 40.0628 6.59764L38.6222 5.21036ZM36.2192 9.65875L41.4032 13.8348L42.6578 12.2772L37.4738 8.10125L36.2192 9.65875ZM42.8066 13.6866C44.0295 12.1815 45.0892 11.1168 45.9863 10.4511L44.7947 8.8449C43.7078 9.65125 42.5275 10.8584 41.2544 12.4254L42.8066 13.6866ZM45.9741 10.46C46.8209 9.85141 47.7829 9.544 48.8945 9.544V7.544C47.3821 7.544 46.0081 7.97259 44.8069 8.83598L45.9741 10.46Z" fill="#004480"/>
</svg>
