<svg width="62" height="38" viewBox="0 0 62 38" fill="none" xmlns="http://www.w3.org/2000/svg">
<path d="M32.448 19.152C32.448 8.98307 26.2567 0.823999 16.568 0.823999V2.824C24.8313 2.824 30.448 9.73693 30.448 19.152H32.448ZM16.568 0.823999C6.8806 0.823999 0.592 9.07755 0.592 19.248H2.592C2.592 9.83444 8.3034 2.824 16.568 2.824V0.823999ZM0.592 19.248C0.592 29.4169 6.78334 37.576 16.472 37.576V35.576C8.20866 35.576 2.592 28.6631 2.592 19.248H0.592ZM16.472 37.576C26.1594 37.576 32.448 29.3224 32.448 19.152H30.448C30.448 28.5656 24.7366 35.576 16.472 35.576V37.576ZM22.864 19.248C22.864 22.181 22.186 24.6359 21.0584 26.3247C19.9473 27.9887 18.4143 28.904 16.568 28.904V30.904C19.1857 30.904 21.3007 29.5633 22.7216 27.4353C24.126 25.3321 24.864 22.459 24.864 19.248H22.864ZM16.568 28.904C14.7232 28.904 13.1641 27.9779 12.0272 26.2911C10.8758 24.5828 10.176 22.1041 10.176 19.152H8.176C8.176 22.3919 8.94016 25.2892 10.3688 27.4089C11.8119 29.5501 13.9488 30.904 16.568 30.904V28.904ZM10.176 19.152C10.176 16.1937 10.8546 13.7399 11.9808 12.0585C13.0897 10.4031 14.6218 9.496 16.472 9.496V7.496C13.8582 7.496 11.7423 8.82092 10.3192 10.9455C8.91344 13.0441 8.176 15.9183 8.176 19.152H10.176ZM16.472 9.496C18.313 9.496 19.8729 10.4303 21.012 12.1257C22.1647 13.8414 22.864 16.3213 22.864 19.248H24.864C24.864 16.0307 24.0993 13.1346 22.6721 11.0103C21.2311 8.86569 19.095 7.496 16.472 7.496V9.496ZM50.5858 8.736L51.295 9.44099L52.9898 7.736H50.5858V8.736ZM42.5698 16.8L41.8605 16.095L41.465 16.4929L41.5985 17.0379L42.5698 16.8ZM43.7218 21.504L42.7505 21.7419L42.9371 22.504H43.7218V21.504ZM40.5058 25.92L41.2532 25.2556L40.5654 24.4819L39.8159 25.196L40.5058 25.92ZM35.4178 30.768L34.7279 30.044L34.0459 30.6939L34.654 31.4135L35.4178 30.768ZM51.5938 16.08L50.9032 15.3567L49.4569 16.7377L51.4294 17.0664L51.5938 16.08ZM60.0898 7.968L60.7803 8.69126L61.0898 8.39582V7.968H60.0898ZM60.0898 2.4H61.0898V1.4H60.0898V2.4ZM37.3858 2.4V1.4H36.3858V2.4H37.3858ZM37.3858 8.736H36.3858V9.736H37.3858V8.736ZM49.8765 8.03101L41.8605 16.095L43.279 17.505L51.295 9.44099L49.8765 8.03101ZM41.5985 17.0379L42.7505 21.7419L44.693 21.2661L43.541 16.5621L41.5985 17.0379ZM43.7218 22.504H46.7938V20.504H43.7218V22.504ZM46.7938 22.504C48.8094 22.504 50.2307 22.8746 51.1173 23.4562C51.9466 24.0001 52.3698 24.7631 52.3698 25.824H54.3698C54.3698 24.1009 53.6169 22.7039 52.2142 21.7838C50.8688 20.9014 49.0021 20.504 46.7938 20.504V22.504ZM52.3698 25.824C52.3698 26.8175 51.9955 27.5655 51.3901 28.0801C50.7683 28.6086 49.8267 28.952 48.6178 28.952V30.952C50.1928 30.952 51.6272 30.5034 52.6854 29.6039C53.76 28.6905 54.3698 27.3745 54.3698 25.824H52.3698ZM48.6178 28.952C45.5745 28.952 43.4272 27.7014 41.2532 25.2556L39.7583 26.5844C42.1923 29.3226 44.845 30.952 48.6178 30.952V28.952ZM39.8159 25.196L34.7279 30.044L36.1076 31.492L41.1956 26.644L39.8159 25.196ZM34.654 31.4135C37.7155 35.0363 42.1665 37.576 48.5218 37.576V35.576C42.781 35.576 38.88 33.3157 36.1815 30.1225L34.654 31.4135ZM48.5218 37.576C52.4746 37.576 55.7583 36.3439 58.0625 34.1788C60.3702 32.0103 61.6178 28.9775 61.6178 25.536H59.6178C59.6178 28.4785 58.5613 30.9657 56.693 32.7212C54.8212 34.4801 52.0569 35.576 48.5218 35.576V37.576ZM61.6178 25.536C61.6178 22.1273 60.4066 19.6742 58.4953 17.9881C56.6206 16.3343 54.1589 15.4937 51.7582 15.0936L51.4294 17.0664C53.6366 17.4343 55.6869 18.1777 57.1722 19.4879C58.6209 20.7658 59.6178 22.6567 59.6178 25.536H61.6178ZM52.2843 16.8033L60.7803 8.69126L59.3992 7.24473L50.9032 15.3567L52.2843 16.8033ZM61.0898 7.968V2.4H59.0898V7.968H61.0898ZM60.0898 1.4H37.3858V3.4H60.0898V1.4ZM36.3858 2.4V8.736H38.3858V2.4H36.3858ZM37.3858 9.736H50.5858V7.736H37.3858V9.736Z" fill="#004480"/>
</svg>
