<svg width="66" height="38" viewBox="0 0 66 38" fill="none" xmlns="http://www.w3.org/2000/svg">
<path d="M30.392 12.336L31.3407 12.0198V12.0198L30.392 12.336ZM27.368 6.816L26.5933 7.44842L26.6011 7.45772L27.368 6.816ZM22.664 3.168L22.2231 4.06555L22.2325 4.07017L22.242 4.07458L22.664 3.168ZM10.424 3.168L9.98924 2.26743L9.9831 2.27044L10.424 3.168ZM5.72 6.864L4.95306 6.22227H4.95306L5.72 6.864ZM2.648 12.432L1.70214 12.1073L1.69932 12.1158L2.648 12.432ZM2.648 26.112L1.69931 26.4282L1.70078 26.4326L2.648 26.112ZM5.624 31.584L4.84928 32.2164L4.85706 32.2257L5.624 31.584ZM10.328 35.28L9.8871 36.1776L9.89649 36.1822L9.90597 36.1866L10.328 35.28ZM22.568 35.232L22.1332 34.3314L22.1271 34.3344L22.568 35.232ZM27.32 31.536L28.0869 32.1777L27.32 31.536ZM30.344 26.016L29.3996 25.6869L29.3953 25.6998L30.344 26.016ZM23.336 23.52L22.3702 23.2609L22.3679 23.2691L22.3659 23.2775L23.336 23.52ZM21.896 26.88L22.7281 27.4347L21.896 26.88ZM19.592 29.136L20.0881 30.0042L20.0996 29.9977L20.111 29.9908L19.592 29.136ZM13.496 29.088L12.977 29.9428L12.9836 29.9468L12.9903 29.9507L13.496 29.088ZM11.192 26.832L10.36 27.3867L11.192 26.832ZM9.704 23.424L8.73816 23.6831L9.704 23.424ZM9.656 14.88L8.69016 14.6209L8.68719 14.6319L8.68448 14.643L9.656 14.88ZM11.144 11.52L11.9672 12.0877L11.9717 12.0812L11.9761 12.0747L11.144 11.52ZM13.448 9.312L13.9441 10.1802L13.9556 10.1737L13.967 10.1668L13.448 9.312ZM19.496 9.312L18.977 10.1668L18.9836 10.1708L18.9903 10.1747L19.496 9.312ZM21.848 11.568L21.0159 12.1227H21.016L21.848 11.568ZM23.336 14.976L24.3018 14.7169V14.7169L23.336 14.976ZM32.448 19.152C32.448 16.6224 32.0817 14.2427 31.3407 12.0198L29.4433 12.6522C30.1103 14.6533 30.448 16.8176 30.448 19.152H32.448ZM31.3407 12.0198C30.6006 9.79946 29.5343 7.84665 28.1349 6.17428L26.6011 7.45772C27.8257 8.92135 28.7754 10.6485 29.4433 12.6522L31.3407 12.0198ZM28.1427 6.18362C26.7662 4.49743 25.0771 3.18831 23.086 2.26142L22.242 4.07458C23.9629 4.87569 25.4098 5.99857 26.5933 7.44838L28.1427 6.18362ZM23.1049 2.27044C21.1302 1.30039 18.945 0.823999 16.568 0.823999V2.824C18.671 2.824 20.5499 3.24361 22.2231 4.06555L23.1049 2.27044ZM16.568 0.823999C14.1907 0.823999 11.9923 1.30045 9.98925 2.26745L10.8587 4.06855C12.5677 3.24355 14.4653 2.824 16.568 2.824V0.823999ZM9.9831 2.27044C8.03297 3.2284 6.35412 4.54784 4.95306 6.22227L6.48694 7.50572C7.70988 6.04416 9.16704 4.89959 10.8649 4.06555L9.9831 2.27044ZM4.95306 6.22227C3.55445 7.89379 2.4736 9.86014 1.70218 12.1073L3.59382 12.7567C4.2944 10.7159 5.26155 8.97021 6.48694 7.50572L4.95306 6.22227ZM1.69932 12.1158C0.958334 14.3387 0.592 16.7184 0.592 19.248H2.592C2.592 16.9136 2.92967 14.7493 3.59668 12.7482L1.69932 12.1158ZM0.592 19.248C0.592 21.8081 0.957903 24.204 1.69932 26.4282L3.59668 25.7958C2.9301 23.796 2.592 21.6159 2.592 19.248H0.592ZM1.70078 26.4326C2.43991 28.6164 3.48743 30.548 4.84934 32.2164L6.39866 30.9516C5.20057 29.484 4.2641 27.7676 3.59522 25.7914L1.70078 26.4326ZM4.85706 32.2257C6.25812 33.9002 7.93697 35.2196 9.8871 36.1776L10.7689 34.3824C9.07104 33.5484 7.61388 32.4038 6.39094 30.9423L4.85706 32.2257ZM9.90597 36.1866C11.9062 37.1177 14.1001 37.576 16.472 37.576V35.576C14.3639 35.576 12.4618 35.1703 10.75 34.3734L9.90597 36.1866ZM16.472 37.576C18.849 37.576 21.0342 37.0996 23.0089 36.1296L22.1271 34.3344C20.4538 35.1564 18.575 35.576 16.472 35.576V37.576ZM23.0028 36.1326C24.9855 35.1753 26.6831 33.8555 28.0869 32.1777L26.5531 30.8943C25.3329 32.3525 23.8625 33.4967 22.1333 34.3314L23.0028 36.1326ZM28.0869 32.1777C29.4863 30.5054 30.5526 28.5525 31.2927 26.3322L29.3953 25.6998C28.7274 27.7035 27.7777 29.4306 26.5531 30.8943L28.0869 32.1777ZM31.2883 26.3451C32.0647 24.1171 32.448 21.7167 32.448 19.152H30.448C30.448 21.5153 30.0953 23.6909 29.3997 25.6869L31.2883 26.3451ZM22.864 19.248C22.864 20.7077 22.6968 22.0436 22.3702 23.2609L24.3018 23.7791C24.6792 22.3724 24.864 20.8603 24.864 19.248H22.864ZM22.3659 23.2775C22.0697 24.462 21.632 25.4733 21.064 26.3253L22.7281 27.4347C23.44 26.3667 23.9623 25.138 24.3061 23.7625L22.3659 23.2775ZM21.064 26.3253C20.4968 27.176 19.8318 27.8205 19.073 28.2812L20.111 29.9908C21.1442 29.3635 22.0152 28.504 22.7281 27.4347L21.064 26.3253ZM19.0959 28.2678C18.3637 28.6861 17.5293 28.904 16.568 28.904V30.904C17.8467 30.904 19.0283 30.6099 20.0881 30.0042L19.0959 28.2678ZM16.568 28.904C15.6181 28.904 14.7699 28.6756 14.0017 28.2253L12.9903 29.9507C14.0781 30.5884 15.2779 30.904 16.568 30.904V28.904ZM14.015 28.2332C13.2562 27.7725 12.5912 27.128 12.0241 26.2773L10.36 27.3867C11.0728 28.456 11.9438 29.3155 12.977 29.9428L14.015 28.2332ZM12.0241 26.2773C11.4541 25.4223 10.9985 24.3899 10.6698 23.1649L8.73816 23.6831C9.11349 25.0821 9.64993 26.3217 10.36 27.3867L12.0241 26.2773ZM10.6698 23.1649C10.3432 21.9476 10.176 20.6117 10.176 19.152H8.176C8.176 20.7643 8.36075 22.2764 8.73816 23.6831L10.6698 23.1649ZM10.176 19.152C10.176 17.6851 10.3288 16.3416 10.6275 15.117L8.68448 14.643C8.34318 16.0424 8.176 17.5469 8.176 19.152H10.176ZM10.6218 15.1391C10.9501 13.9155 11.4038 12.9047 11.9672 12.0877L10.3208 10.9523C9.60423 11.9913 9.06586 13.2205 8.69016 14.6209L10.6218 15.1391ZM11.9761 12.0747C12.5402 11.2285 13.1981 10.6065 13.9441 10.1802L12.9519 8.44375C11.9059 9.04147 11.0278 9.89154 10.312 10.9653L11.9761 12.0747ZM13.967 10.1668C14.6958 9.72432 15.522 9.496 16.472 9.496V7.496C15.182 7.496 13.9923 7.81168 12.929 8.45721L13.967 10.1668ZM16.472 9.496C17.422 9.496 18.2482 9.72432 18.977 10.1668L20.015 8.45721C18.9518 7.81168 17.762 7.496 16.472 7.496V9.496ZM18.9903 10.1747C19.7782 10.6366 20.4538 11.2794 21.0159 12.1227L22.6801 11.0133C21.9622 9.93658 21.0698 9.0754 20.0017 8.4493L18.9903 10.1747ZM21.016 12.1227C21.5859 12.9777 22.0415 14.0101 22.3702 15.2351L24.3018 14.7169C23.9265 13.3179 23.3901 12.0783 22.68 11.0133L21.016 12.1227ZM22.3702 15.2351C22.6968 16.4524 22.864 17.7883 22.864 19.248H24.864C24.864 17.6357 24.6792 16.1236 24.3018 14.7169L22.3702 15.2351ZM53.9825 2.16V1.16H53.5246L53.2254 1.50669L53.9825 2.16ZM35.5505 23.52L34.7934 22.8667L34.4626 23.25L34.5758 23.7436L35.5505 23.52ZM36.7505 28.752L35.7758 28.9756L35.9539 29.752H36.7505V28.752ZM53.1665 28.752H54.1665V27.752H53.1665V28.752ZM53.1665 36H52.1665V37H53.1665V36ZM60.2225 36V37H61.2225V36H60.2225ZM60.2225 28.752V27.752H59.2225V28.752H60.2225ZM64.7345 28.752V29.752H65.7345V28.752H64.7345ZM64.7345 22.752H65.7345V21.752H64.7345V22.752ZM60.2225 22.752H59.2225V23.752H60.2225V22.752ZM60.2225 2.16H61.2225V1.16H60.2225V2.16ZM53.1665 22.752V23.752H54.1665V22.752H53.1665ZM44.2385 22.752L43.4778 22.1029L42.0708 23.752H44.2385V22.752ZM53.1665 12.288H54.1665V9.57528L52.4058 11.6389L53.1665 12.288ZM53.2254 1.50669L34.7934 22.8667L36.3076 24.1733L54.7396 2.81331L53.2254 1.50669ZM34.5758 23.7436L35.7758 28.9756L37.7252 28.5284L36.5252 23.2964L34.5758 23.7436ZM36.7505 29.752H53.1665V27.752H36.7505V29.752ZM52.1665 28.752V36H54.1665V28.752H52.1665ZM53.1665 37H60.2225V35H53.1665V37ZM61.2225 36V28.752H59.2225V36H61.2225ZM60.2225 29.752H64.7345V27.752H60.2225V29.752ZM65.7345 28.752V22.752H63.7345V28.752H65.7345ZM64.7345 21.752H60.2225V23.752H64.7345V21.752ZM61.2225 22.752V2.16H59.2225V22.752H61.2225ZM60.2225 1.16H53.9825V3.16H60.2225V1.16ZM53.1665 21.752H44.2385V23.752H53.1665V21.752ZM44.9992 23.4011L53.9272 12.9371L52.4058 11.6389L43.4778 22.1029L44.9992 23.4011ZM52.1665 12.288V22.752H54.1665V12.288H52.1665Z" fill="#004480"/>
</svg>
