<svg width="63" height="38" viewBox="0 0 63 38" fill="none" xmlns="http://www.w3.org/2000/svg">
<path d="M30.392 12.336L31.3407 12.0198V12.0198L30.392 12.336ZM27.368 6.816L26.5933 7.44842L26.6011 7.45772L27.368 6.816ZM22.664 3.168L22.2231 4.06555L22.2325 4.07017L22.242 4.07458L22.664 3.168ZM10.424 3.168L9.98924 2.26743L9.9831 2.27044L10.424 3.168ZM5.72 6.864L4.95306 6.22227H4.95306L5.72 6.864ZM2.648 12.432L1.70214 12.1073L1.69932 12.1158L2.648 12.432ZM2.648 26.112L1.69931 26.4282L1.70078 26.4326L2.648 26.112ZM5.624 31.584L4.84928 32.2164L4.85706 32.2257L5.624 31.584ZM10.328 35.28L9.8871 36.1776L9.89649 36.1822L9.90597 36.1866L10.328 35.28ZM22.568 35.232L22.1332 34.3314L22.1271 34.3344L22.568 35.232ZM27.32 31.536L28.0869 32.1777L27.32 31.536ZM30.344 26.016L29.3996 25.6869L29.3953 25.6998L30.344 26.016ZM23.336 23.52L22.3702 23.2609L22.3679 23.2691L22.3659 23.2775L23.336 23.52ZM21.896 26.88L22.7281 27.4347L21.896 26.88ZM19.592 29.136L20.0881 30.0042L20.0996 29.9977L20.111 29.9908L19.592 29.136ZM13.496 29.088L12.977 29.9428L12.9836 29.9468L12.9903 29.9507L13.496 29.088ZM11.192 26.832L10.36 27.3867L11.192 26.832ZM9.704 23.424L8.73816 23.6831L9.704 23.424ZM9.656 14.88L8.69016 14.6209L8.68719 14.6319L8.68448 14.643L9.656 14.88ZM11.144 11.52L11.9672 12.0877L11.9717 12.0812L11.9761 12.0747L11.144 11.52ZM13.448 9.312L13.9441 10.1802L13.9556 10.1737L13.967 10.1668L13.448 9.312ZM19.496 9.312L18.977 10.1668L18.9836 10.1708L18.9903 10.1747L19.496 9.312ZM21.848 11.568L21.0159 12.1227H21.016L21.848 11.568ZM23.336 14.976L24.3018 14.7169V14.7169L23.336 14.976ZM32.448 19.152C32.448 16.6224 32.0817 14.2427 31.3407 12.0198L29.4433 12.6522C30.1103 14.6533 30.448 16.8176 30.448 19.152H32.448ZM31.3407 12.0198C30.6006 9.79946 29.5343 7.84665 28.1349 6.17428L26.6011 7.45772C27.8257 8.92135 28.7754 10.6485 29.4433 12.6522L31.3407 12.0198ZM28.1427 6.18362C26.7662 4.49743 25.0771 3.18831 23.086 2.26142L22.242 4.07458C23.9629 4.87569 25.4098 5.99857 26.5933 7.44838L28.1427 6.18362ZM23.1049 2.27044C21.1302 1.30039 18.945 0.823999 16.568 0.823999V2.824C18.671 2.824 20.5499 3.24361 22.2231 4.06555L23.1049 2.27044ZM16.568 0.823999C14.1907 0.823999 11.9923 1.30045 9.98925 2.26745L10.8587 4.06855C12.5677 3.24355 14.4653 2.824 16.568 2.824V0.823999ZM9.9831 2.27044C8.03297 3.2284 6.35412 4.54784 4.95306 6.22227L6.48694 7.50572C7.70988 6.04416 9.16704 4.89959 10.8649 4.06555L9.9831 2.27044ZM4.95306 6.22227C3.55445 7.89379 2.4736 9.86014 1.70218 12.1073L3.59382 12.7567C4.2944 10.7159 5.26155 8.97021 6.48694 7.50572L4.95306 6.22227ZM1.69932 12.1158C0.958334 14.3387 0.592 16.7184 0.592 19.248H2.592C2.592 16.9136 2.92967 14.7493 3.59668 12.7482L1.69932 12.1158ZM0.592 19.248C0.592 21.8081 0.957903 24.204 1.69932 26.4282L3.59668 25.7958C2.9301 23.796 2.592 21.6159 2.592 19.248H0.592ZM1.70078 26.4326C2.43991 28.6164 3.48743 30.548 4.84934 32.2164L6.39866 30.9516C5.20057 29.484 4.2641 27.7676 3.59522 25.7914L1.70078 26.4326ZM4.85706 32.2257C6.25812 33.9002 7.93697 35.2196 9.8871 36.1776L10.7689 34.3824C9.07104 33.5484 7.61388 32.4038 6.39094 30.9423L4.85706 32.2257ZM9.90597 36.1866C11.9062 37.1177 14.1001 37.576 16.472 37.576V35.576C14.3639 35.576 12.4618 35.1703 10.75 34.3734L9.90597 36.1866ZM16.472 37.576C18.849 37.576 21.0342 37.0996 23.0089 36.1296L22.1271 34.3344C20.4538 35.1564 18.575 35.576 16.472 35.576V37.576ZM23.0028 36.1326C24.9855 35.1753 26.6831 33.8555 28.0869 32.1777L26.5531 30.8943C25.3329 32.3525 23.8625 33.4967 22.1333 34.3314L23.0028 36.1326ZM28.0869 32.1777C29.4863 30.5054 30.5526 28.5525 31.2927 26.3322L29.3953 25.6998C28.7274 27.7035 27.7777 29.4306 26.5531 30.8943L28.0869 32.1777ZM31.2883 26.3451C32.0647 24.1171 32.448 21.7167 32.448 19.152H30.448C30.448 21.5153 30.0953 23.6909 29.3997 25.6869L31.2883 26.3451ZM22.864 19.248C22.864 20.7077 22.6968 22.0436 22.3702 23.2609L24.3018 23.7791C24.6792 22.3724 24.864 20.8603 24.864 19.248H22.864ZM22.3659 23.2775C22.0697 24.462 21.632 25.4733 21.064 26.3253L22.7281 27.4347C23.44 26.3667 23.9623 25.138 24.3061 23.7625L22.3659 23.2775ZM21.064 26.3253C20.4968 27.176 19.8318 27.8205 19.073 28.2812L20.111 29.9908C21.1442 29.3635 22.0152 28.504 22.7281 27.4347L21.064 26.3253ZM19.0959 28.2678C18.3637 28.6861 17.5293 28.904 16.568 28.904V30.904C17.8467 30.904 19.0283 30.6099 20.0881 30.0042L19.0959 28.2678ZM16.568 28.904C15.6181 28.904 14.7699 28.6756 14.0017 28.2253L12.9903 29.9507C14.0781 30.5884 15.2779 30.904 16.568 30.904V28.904ZM14.015 28.2332C13.2562 27.7725 12.5912 27.128 12.0241 26.2773L10.36 27.3867C11.0728 28.456 11.9438 29.3155 12.977 29.9428L14.015 28.2332ZM12.0241 26.2773C11.4541 25.4223 10.9985 24.3899 10.6698 23.1649L8.73816 23.6831C9.11349 25.0821 9.64993 26.3217 10.36 27.3867L12.0241 26.2773ZM10.6698 23.1649C10.3432 21.9476 10.176 20.6117 10.176 19.152H8.176C8.176 20.7643 8.36075 22.2764 8.73816 23.6831L10.6698 23.1649ZM10.176 19.152C10.176 17.6851 10.3288 16.3416 10.6275 15.117L8.68448 14.643C8.34318 16.0424 8.176 17.5469 8.176 19.152H10.176ZM10.6218 15.1391C10.9501 13.9155 11.4038 12.9047 11.9672 12.0877L10.3208 10.9523C9.60423 11.9913 9.06586 13.2205 8.69016 14.6209L10.6218 15.1391ZM11.9761 12.0747C12.5402 11.2285 13.1981 10.6065 13.9441 10.1802L12.9519 8.44375C11.9059 9.04147 11.0278 9.89154 10.312 10.9653L11.9761 12.0747ZM13.967 10.1668C14.6958 9.72432 15.522 9.496 16.472 9.496V7.496C15.182 7.496 13.9923 7.81168 12.929 8.45721L13.967 10.1668ZM16.472 9.496C17.422 9.496 18.2482 9.72432 18.977 10.1668L20.015 8.45721C18.9518 7.81168 17.762 7.496 16.472 7.496V9.496ZM18.9903 10.1747C19.7782 10.6366 20.4538 11.2794 21.0159 12.1227L22.6801 11.0133C21.9622 9.93658 21.0698 9.0754 20.0017 8.4493L18.9903 10.1747ZM21.016 12.1227C21.5859 12.9777 22.0415 14.0101 22.3702 15.2351L24.3018 14.7169C23.9265 13.3179 23.3901 12.0783 22.68 11.0133L21.016 12.1227ZM22.3702 15.2351C22.6968 16.4524 22.864 17.7883 22.864 19.248H24.864C24.864 17.6357 24.6792 16.1236 24.3018 14.7169L22.3702 15.2351ZM38.3825 18.96L37.3842 18.9021L37.3509 19.4759L37.83 19.7935L38.3825 18.96ZM42.6545 21.792L42.102 22.6255L42.5573 22.9273L43.0572 22.7073L42.6545 21.792ZM45.2465 20.928L45.4811 21.9001L45.4927 21.8973L45.5042 21.8942L45.2465 20.928ZM52.5905 21.744L51.9866 22.5411L51.9923 22.5454L51.9981 22.5496L52.5905 21.744ZM52.6865 28.656L52.0709 27.868L52.0648 27.8727L52.0587 27.8776L52.6865 28.656ZM44.4305 28.896L43.9833 29.7904L44.4305 28.896ZM40.5905 26.208L41.2595 25.4647L40.4894 24.7716L39.824 25.5658L40.5905 26.208ZM36.1265 31.536L35.36 30.8938L34.76 31.6099L35.4337 32.2571L36.1265 31.536ZM41.5985 35.232L41.1924 36.1458L41.5985 35.232ZM53.9345 35.76L53.6126 34.8132L53.6067 34.8152L53.9345 35.76ZM57.9665 33.456L58.6403 34.195L58.6413 34.194L57.9665 33.456ZM60.5585 29.76L59.6373 29.371L60.5585 29.76ZM60.5585 20.016L59.6438 20.4202L59.6474 20.4282L60.5585 20.016ZM58.0625 16.656L57.4293 17.43L58.0625 16.656ZM54.3185 14.736L54.0351 15.695L54.041 15.6967L54.3185 14.736ZM47.3105 14.304L47.4519 15.2939L47.4749 15.2907L47.4976 15.2863L47.3105 14.304ZM45.2945 14.688L44.2967 14.622L44.2072 15.9748L45.5261 15.6608L45.2945 14.688ZM45.6785 8.88V7.88H44.7424L44.6807 8.81403L45.6785 8.88ZM59.9825 8.88V9.88H60.9825V8.88H59.9825ZM59.9825 2.4H60.9825V1.4H59.9825V2.4ZM39.3425 2.4V1.4H38.3988L38.3442 2.34212L39.3425 2.4ZM37.83 19.7935L42.102 22.6255L43.207 20.9585L38.935 18.1265L37.83 19.7935ZM43.0572 22.7073C43.7983 22.3813 44.6055 22.1114 45.4811 21.9001L45.0119 19.9559C44.0315 20.1926 43.1107 20.4987 42.2518 20.8767L43.0572 22.7073ZM45.5042 21.8942C46.375 21.662 47.296 21.544 48.2705 21.544V19.544C47.133 19.544 46.038 19.682 44.9888 19.9618L45.5042 21.8942ZM48.2705 21.544C49.9572 21.544 51.1593 21.9143 51.9866 22.5411L53.1944 20.9469C51.9097 19.9736 50.2318 19.544 48.2705 19.544V21.544ZM51.9981 22.5496C52.8042 23.1423 53.2225 23.9648 53.2225 25.152H55.2225C55.2225 23.3952 54.5528 21.9456 53.1829 20.9383L51.9981 22.5496ZM53.2225 25.152C53.2225 26.443 52.8067 27.2931 52.0709 27.868L53.3021 29.444C54.6143 28.4189 55.2225 26.933 55.2225 25.152H53.2225ZM52.0587 27.8776C51.2987 28.4905 50.1871 28.856 48.6065 28.856V30.856C50.4819 30.856 52.0903 30.4215 53.3143 29.4344L52.0587 27.8776ZM48.6065 28.856C47.2496 28.856 46.0118 28.5686 44.8777 28.0016L43.9833 29.7904C45.4092 30.5034 46.9554 30.856 48.6065 30.856V28.856ZM44.8777 28.0016C43.6924 27.4089 42.4857 26.5684 41.2595 25.4647L39.9215 26.9513C41.2553 28.1516 42.6086 29.1031 43.9833 29.7904L44.8777 28.0016ZM39.824 25.5658L35.36 30.8938L36.893 32.1782L41.357 26.8502L39.824 25.5658ZM35.4337 32.2571C37.1471 33.9034 39.0676 35.2015 41.1924 36.1458L42.0046 34.3182C40.0974 33.4705 38.3699 32.3046 36.8193 30.8149L35.4337 32.2571ZM41.1924 36.1458C43.3624 37.1102 45.8743 37.576 48.7025 37.576V35.576C46.0907 35.576 43.8667 35.1457 42.0046 34.3182L41.1924 36.1458ZM48.7025 37.576C50.7169 37.576 52.5738 37.2906 54.2623 36.7048L53.6067 34.8152C52.1592 35.3174 50.5281 35.576 48.7025 35.576V37.576ZM54.2564 36.7068C55.9676 36.125 57.4366 35.2924 58.6403 34.195L57.2927 32.717C56.3204 33.6036 55.1014 34.307 53.6126 34.8132L54.2564 36.7068ZM58.6413 34.194C59.8709 33.0698 60.8174 31.7176 61.4798 30.149L59.6373 29.371C59.0836 30.6824 58.3022 31.7942 57.2917 32.718L58.6413 34.194ZM61.4798 30.149C62.1468 28.5692 62.4705 26.8182 62.4705 24.912H60.4705C60.4705 26.5898 60.1862 28.0708 59.6373 29.371L61.4798 30.149ZM62.4705 24.912C62.4705 22.8909 62.151 21.1101 61.4696 19.6038L59.6474 20.4282C60.182 21.6099 60.4705 23.0931 60.4705 24.912H62.4705ZM61.4732 19.6118C60.8083 18.1071 59.8854 16.8554 58.6957 15.882L57.4293 17.43C58.3517 18.1846 59.0927 19.1729 59.6438 20.4202L61.4732 19.6118ZM58.6957 15.882C57.5251 14.9243 56.1531 14.2251 54.596 13.7753L54.041 15.6967C55.3639 16.0789 56.4879 16.6597 57.4293 17.43L58.6957 15.882ZM54.6018 13.777C53.0905 13.3305 51.4579 13.112 49.7105 13.112V15.112C51.2911 15.112 52.7305 15.3095 54.0352 15.695L54.6018 13.777ZM49.7105 13.112C48.7403 13.112 47.8744 13.1786 47.1234 13.3217L47.4976 15.2863C48.0906 15.1734 48.8247 15.112 49.7105 15.112V13.112ZM47.1691 13.314C46.4662 13.4145 45.7641 13.5482 45.0629 13.7152L45.5261 15.6608C46.1689 15.5078 46.8108 15.3855 47.4519 15.2939L47.1691 13.314ZM46.2923 14.754L46.6763 8.94597L44.6807 8.81403L44.2967 14.622L46.2923 14.754ZM45.6785 9.88H59.9825V7.88H45.6785V9.88ZM60.9825 8.88V2.4H58.9825V8.88H60.9825ZM59.9825 1.4H39.3425V3.4H59.9825V1.4ZM38.3442 2.34212L37.3842 18.9021L39.3808 19.0179L40.3408 2.45787L38.3442 2.34212Z" fill="#004480"/>
</svg>
