<svg width="57" height="38" viewBox="0 0 57 38" fill="none" xmlns="http://www.w3.org/2000/svg">
<path d="M26.5918 9.40123L28.0204 6.54404L40.4763 19L28.0204 31.4559L26.5918 28.5987L35.837 19.3535L36.1905 19L35.837 18.6464L26.5918 9.40123Z" stroke="white"/>
<path d="M13.5918 9.40123L15.0204 6.54404L27.4763 19L15.0204 31.4559L13.5918 28.5987L22.837 19.3535L23.1905 19L22.837 18.6464L13.5918 9.40123Z" stroke="white"/>
<path d="M30.4 28.5L39.9 19L30.4 9.49995L32.3 5.69995L45.6 18.9999L32.3 32.2999L30.4 28.5Z" fill="#004480"/>
<path d="M16.4 28.5L25.9 19L16.4 9.49995L18.3 5.69995L31.6 18.9999L18.3 32.2999L16.4 28.5Z" fill="#004480"/>
</svg>
