<svg width="431" height="302" viewBox="0 0 431 302" fill="none" xmlns="http://www.w3.org/2000/svg">
<mask id="mask0" style="mask-type:alpha" maskUnits="userSpaceOnUse" x="0" y="0" width="431" height="302">
<rect width="431" height="302" fill="#FFDA00"/>
</mask>
<g mask="url(#mask0)">
<rect x="408.544" y="-242" width="407.884" height="16.8547" transform="rotate(45 408.544 -242)" fill="#FFDA00"/>
<rect x="384.708" y="-218.164" width="407.884" height="16.8547" transform="rotate(45 384.708 -218.164)" fill="#FFDA00"/>
<rect x="360.872" y="-194.328" width="407.884" height="16.8547" transform="rotate(45 360.872 -194.328)" fill="#FFDA00"/>
<rect x="337.036" y="-170.491" width="407.884" height="16.8547" transform="rotate(45 337.036 -170.491)" fill="#FFDA00"/>
<rect x="313.2" y="-146.655" width="407.884" height="16.8547" transform="rotate(45 313.2 -146.655)" fill="#FFDA00"/>
<rect x="283.164" y="-129.681" width="407.884" height="16.8547" transform="rotate(45 283.164 -129.681)" fill="#FFDA00"/>
<rect x="259.328" y="-105.844" width="407.884" height="16.8547" transform="rotate(45 259.328 -105.844)" fill="#FFDA00"/>
<rect x="235.492" y="-82.0083" width="407.884" height="16.8547" transform="rotate(45 235.492 -82.0083)" fill="#FFDA00"/>
<rect x="211.656" y="-58.1721" width="407.884" height="16.8547" transform="rotate(45 211.656 -58.1721)" fill="#FFDA00"/>
<rect x="187.82" y="-34.3359" width="407.884" height="16.8547" transform="rotate(45 187.82 -34.3359)" fill="#FFDA00"/>
</g>
</svg>
