<svg width="20" height="20" viewBox="0 0 20 20" fill="none" xmlns="http://www.w3.org/2000/svg">
<g clip-path="url(#clip0)">
<path d="M19.9995 10.061C19.9995 4.50347 15.522 -0.00152588 9.99951 -0.00152588C4.47451 -0.000275879 -0.00299072 4.50348 -0.00299072 10.0622C-0.00299072 15.0835 3.65451 19.246 8.43451 20.001V12.9697H5.89701V10.0622H8.43701V7.84347C8.43701 5.32222 9.93076 3.92972 12.2145 3.92972C13.3095 3.92972 14.4533 4.12597 14.4533 4.12597V6.60098H13.192C11.9508 6.60098 11.5633 7.37722 11.5633 8.17348V10.061H14.3358L13.8933 12.9685H11.562V19.9997C16.342 19.2447 19.9995 15.0822 19.9995 10.061Z" fill="#0075B4"/>
</g>
<defs>
<clipPath id="clip0">
<rect width="20" height="20" fill="white"/>
</clipPath>
</defs>
</svg>
