<svg width="20" height="20" viewBox="0 0 20 20" fill="none" xmlns="http://www.w3.org/2000/svg">
<path fill-rule="evenodd" clip-rule="evenodd" d="M6.22084 0.888313C7.19834 0.843313 7.51001 0.833313 10 0.833313C12.49 0.833313 12.8017 0.844146 13.7783 0.888313C14.755 0.93248 15.4217 1.08831 16.005 1.31415C16.6158 1.54498 17.17 1.90581 17.6283 2.37248C18.095 2.82998 18.455 3.38331 18.685 3.99498C18.9117 4.57831 19.0667 5.24498 19.1117 6.21998C19.1567 7.19915 19.1667 7.51081 19.1667 9.99998C19.1667 12.49 19.1558 12.8016 19.1117 13.7791C19.0675 14.7541 18.9117 15.4208 18.685 16.0041C18.455 16.6159 18.0944 17.1701 17.6283 17.6283C17.17 18.095 16.6158 18.455 16.005 18.685C15.4217 18.9116 14.755 19.0666 13.78 19.1116C12.8017 19.1566 12.49 19.1666 10 19.1666C7.51001 19.1666 7.19834 19.1558 6.22084 19.1116C5.24584 19.0675 4.57918 18.9116 3.99584 18.685C3.38411 18.4549 2.82986 18.0944 2.37168 17.6283C1.90533 17.1705 1.54444 16.6165 1.31418 16.005C1.08834 15.4216 0.933343 14.755 0.888343 13.78C0.843343 12.8008 0.833344 12.4891 0.833344 9.99998C0.833344 7.50998 0.844177 7.19831 0.888343 6.22165C0.93251 5.24498 1.08834 4.57831 1.31418 3.99498C1.54478 3.38338 1.90594 2.82941 2.37251 2.37165C2.83004 1.9054 3.38374 1.54452 3.99501 1.31415C4.57834 1.08831 5.24501 0.933313 6.22001 0.888313H6.22084ZM13.7042 2.53831C12.7375 2.49415 12.4475 2.48498 10 2.48498C7.55251 2.48498 7.26251 2.49415 6.29584 2.53831C5.40168 2.57915 4.91668 2.72831 4.59334 2.85415C4.16584 3.02081 3.86001 3.21831 3.53918 3.53915C3.23505 3.83502 3.00099 4.19521 2.85418 4.59331C2.72834 4.91665 2.57918 5.40165 2.53834 6.29581C2.49418 7.26248 2.48501 7.55248 2.48501 9.99998C2.48501 12.4475 2.49418 12.7375 2.53834 13.7041C2.57918 14.5983 2.72834 15.0833 2.85418 15.4066C3.00084 15.8041 3.23501 16.165 3.53918 16.4608C3.83501 16.765 4.19584 16.9991 4.59334 17.1458C4.91668 17.2716 5.40168 17.4208 6.29584 17.4616C7.26251 17.5058 7.55168 17.515 10 17.515C12.4483 17.515 12.7375 17.5058 13.7042 17.4616C14.5983 17.4208 15.0833 17.2716 15.4067 17.1458C15.8342 16.9791 16.14 16.7816 16.4608 16.4608C16.765 16.165 16.9992 15.8041 17.1458 15.4066C17.2717 15.0833 17.4208 14.5983 17.4617 13.7041C17.5058 12.7375 17.515 12.4475 17.515 9.99998C17.515 7.55248 17.5058 7.26248 17.4617 6.29581C17.4208 5.40165 17.2717 4.91665 17.1458 4.59331C16.9792 4.16581 16.7817 3.85998 16.4608 3.53915C16.1649 3.23504 15.8048 3.00099 15.4067 2.85415C15.0833 2.72831 14.5983 2.57915 13.7042 2.53831ZM8.82918 12.8258C9.48306 13.098 10.2112 13.1347 10.8891 12.9297C11.5671 12.7248 12.1528 12.2907 12.5464 11.7018C12.9399 11.113 13.1167 10.4057 13.0467 9.7009C12.9767 8.99609 12.6642 8.33746 12.1625 7.83748C11.8427 7.51788 11.456 7.27316 11.0303 7.12093C10.6046 6.96871 10.1504 6.91278 9.70042 6.95716C9.25048 7.00154 8.81597 7.14513 8.42818 7.37759C8.04039 7.61005 7.70896 7.9256 7.45776 8.30152C7.20656 8.67744 7.04183 9.10439 6.97544 9.55161C6.90905 9.99884 6.94264 10.4552 7.07379 10.8879C7.20495 11.3206 7.43041 11.7188 7.73394 12.0539C8.03748 12.389 8.41153 12.6526 8.82918 12.8258ZM6.66834 6.66831C7.10586 6.23079 7.62528 5.88373 8.19692 5.64695C8.76857 5.41016 9.38126 5.28829 10 5.28829C10.6188 5.28829 11.2314 5.41016 11.8031 5.64695C12.3747 5.88373 12.8942 6.23079 13.3317 6.66831C13.7692 7.10583 14.1163 7.62525 14.353 8.19689C14.5898 8.76854 14.7117 9.38123 14.7117 9.99998C14.7117 10.6187 14.5898 11.2314 14.353 11.8031C14.1163 12.3747 13.7692 12.8941 13.3317 13.3316C12.4481 14.2153 11.2496 14.7117 10 14.7117C8.75039 14.7117 7.55196 14.2153 6.66834 13.3316C5.78473 12.448 5.28832 11.2496 5.28832 9.99998C5.28832 8.75036 5.78473 7.55193 6.66834 6.66831ZM15.7567 5.98998C15.8651 5.8877 15.9519 5.76471 16.0119 5.62829C16.072 5.49187 16.104 5.34479 16.1062 5.19575C16.1084 5.04672 16.0806 4.89877 16.0246 4.76065C15.9685 4.62254 15.8854 4.49707 15.78 4.39168C15.6746 4.28629 15.5491 4.20311 15.411 4.14708C15.2729 4.09104 15.1249 4.06329 14.9759 4.06547C14.8269 4.06764 14.6798 4.09969 14.5434 4.15973C14.4069 4.21976 14.284 4.30656 14.1817 4.41498C13.9828 4.62584 13.8739 4.90591 13.8781 5.19575C13.8823 5.48559 13.9993 5.76238 14.2043 5.96735C14.4093 6.17232 14.6861 6.28934 14.9759 6.29356C15.2657 6.29779 15.5458 6.18889 15.7567 5.98998Z" fill="#0075B4"/>
</svg>
