<svg width="130" height="133" viewBox="0 0 130 133" fill="none" xmlns="http://www.w3.org/2000/svg">
<path d="M65 21.0293L109.652 65.3376L97.5982 71.318L65.3522 39.32L65 38.9706L64.6478 39.32L32.4018 71.3181L20.3482 65.3377L65 21.0293Z" stroke="white"/>
<path d="M32.4013 119.975L20.3441 113.946L65 69.2904L109.656 113.946L97.5987 119.975L65.3536 87.7297L65 87.3761L64.6464 87.7297L32.4013 119.975Z" stroke="white"/>
<path d="M97.5 58.9998L65 26.4998L32.5 58.9998L19.5 52.4998L65 6.99975L110.5 52.4998L97.5 58.9998Z" fill="#00A6E8"/>
<path d="M97.5 107.3L65 75.0497L32.5 107.3L19.5 100.85L65 55.6997L110.5 100.85L97.5 107.3Z" fill="#00A6E8"/>
</svg>
