<svg width="20" height="20" viewBox="0 0 20 20" fill="none" xmlns="http://www.w3.org/2000/svg">
<path fill-rule="evenodd" clip-rule="evenodd" d="M0.833344 2.36498C0.833344 1.95876 0.994715 1.56917 1.28196 1.28193C1.5692 0.994687 1.95879 0.833315 2.36501 0.833315H17.6333C17.8347 0.832986 18.0341 0.872367 18.2201 0.949204C18.4062 1.02604 18.5753 1.13882 18.7177 1.2811C18.8601 1.42337 18.9731 1.59233 19.0501 1.77832C19.1272 1.96431 19.1668 2.16367 19.1667 2.36498V17.6333C19.1669 17.8347 19.1274 18.0341 19.0505 18.2202C18.9736 18.4062 18.8607 18.5753 18.7184 18.7177C18.576 18.8602 18.407 18.9731 18.221 19.0501C18.0349 19.1272 17.8355 19.1668 17.6342 19.1667H2.36501C2.1638 19.1667 1.96456 19.127 1.77867 19.05C1.59279 18.973 1.4239 18.8601 1.28166 18.7177C1.13942 18.5754 1.02662 18.4065 0.949696 18.2206C0.872771 18.0346 0.833234 17.8354 0.833344 17.6342V2.36498ZM8.09001 7.82332H10.5725V9.06998C10.9308 8.35332 11.8475 7.70832 13.225 7.70832C15.8658 7.70832 16.4917 9.13582 16.4917 11.755V16.6067H13.8192V12.3517C13.8192 10.86 13.4608 10.0183 12.5508 10.0183C11.2883 10.0183 10.7633 10.9258 10.7633 12.3517V16.6067H8.09001V7.82332ZM3.50668 16.4925H6.18001V7.70832H3.50668V16.4917V16.4925ZM6.56251 4.84332C6.56755 5.07221 6.52682 5.29981 6.44271 5.51274C6.3586 5.72568 6.2328 5.91968 6.0727 6.08334C5.9126 6.24701 5.72143 6.37704 5.51039 6.46582C5.29935 6.5546 5.07271 6.60033 4.84376 6.60033C4.61481 6.60033 4.38817 6.5546 4.17713 6.46582C3.9661 6.37704 3.77492 6.24701 3.61482 6.08334C3.45472 5.91968 3.32892 5.72568 3.24481 5.51274C3.1607 5.29981 3.11997 5.07221 3.12501 4.84332C3.1349 4.39403 3.32033 3.96647 3.64158 3.65222C3.96283 3.33797 4.39436 3.162 4.84376 3.162C5.29316 3.162 5.72469 3.33797 6.04594 3.65222C6.36719 3.96647 6.55262 4.39403 6.56251 4.84332Z" fill="#0075B4"/>
</svg>
