<svg width="40" height="40" viewBox="0 0 40 40" fill="none" xmlns="http://www.w3.org/2000/svg">
<path d="M27.865 32.92L26.7983 24.38C26.6472 23.1704 26.0593 22.0576 25.1453 21.251C24.2312 20.4444 23.054 19.9995 21.835 20H18.1617C16.9432 20.0003 15.7668 20.4456 14.8535 21.2521C13.9401 22.0587 13.3528 23.1709 13.2017 24.38L12.1333 32.92C12.0747 33.3892 12.1166 33.8655 12.2561 34.3173C12.3957 34.769 12.6298 35.1859 12.9428 35.5403C13.2559 35.8946 13.6408 36.1783 14.0719 36.3725C14.503 36.5667 14.9705 36.667 15.4433 36.6667H24.5567C25.0294 36.6668 25.4967 36.5663 25.9276 36.372C26.3585 36.1777 26.7432 35.894 27.056 35.5397C27.3689 35.1853 27.6028 34.7685 27.7423 34.3169C27.8818 33.8652 27.9236 33.3891 27.865 32.92V32.92Z" stroke="#0075B4" stroke-width="3" stroke-linecap="round" stroke-linejoin="round"/>
<path d="M20 13.3334C22.7614 13.3334 25 11.0948 25 8.33337C25 5.57195 22.7614 3.33337 20 3.33337C17.2386 3.33337 15 5.57195 15 8.33337C15 11.0948 17.2386 13.3334 20 13.3334Z" stroke="#0075B4" stroke-width="3"/>
<path d="M6.66668 18.3334C8.50763 18.3334 10 16.841 10 15.0001C10 13.1591 8.50763 11.6667 6.66668 11.6667C4.82573 11.6667 3.33334 13.1591 3.33334 15.0001C3.33334 16.841 4.82573 18.3334 6.66668 18.3334Z" stroke="#0075B4" stroke-width="3"/>
<path d="M33.3333 18.3334C35.1743 18.3334 36.6667 16.841 36.6667 15.0001C36.6667 13.1591 35.1743 11.6667 33.3333 11.6667C31.4924 11.6667 30 13.1591 30 15.0001C30 16.841 31.4924 18.3334 33.3333 18.3334Z" stroke="#0075B4" stroke-width="3"/>
<path d="M6.66666 23.3334H6.15666C5.36759 23.3333 4.60408 23.6131 4.00195 24.1231C3.39982 24.633 2.99812 25.3401 2.86832 26.1184L2.31332 29.4517C2.23368 29.9293 2.25903 30.4185 2.38761 30.8853C2.51619 31.352 2.74491 31.7852 3.05787 32.1546C3.37083 32.5241 3.76051 32.8209 4.19981 33.0245C4.63911 33.228 5.11749 33.3334 5.60166 33.3334H11.6667" stroke="#0075B4" stroke-width="3" stroke-linecap="round" stroke-linejoin="round"/>
<path d="M33.3333 23.3334H33.8433C34.6324 23.3333 35.3959 23.6131 35.998 24.1231C36.6002 24.633 37.0018 25.3401 37.1316 26.1184L37.6866 29.4517C37.7663 29.9293 37.7409 30.4185 37.6124 30.8853C37.4838 31.352 37.2551 31.7852 36.9421 32.1546C36.6291 32.5241 36.2395 32.8209 35.8002 33.0245C35.3609 33.228 34.8825 33.3334 34.3983 33.3334H28.3333" stroke="#0075B4" stroke-width="3" stroke-linecap="round" stroke-linejoin="round"/>
</svg>
