<svg width="153" height="35" viewBox="0 0 153 35" fill="none" xmlns="http://www.w3.org/2000/svg">
<g clip-path="url(#clip0)">
<path d="M39.2708 22.7451H42.8039C44.1907 22.7451 44.719 23.2244 44.719 24.3682C44.719 25.512 44.1907 25.9586 42.8039 25.9586H39.2708V22.7451ZM33.7676 34.4227H39.2708V29.6732H45.1262C49.0115 29.6732 50.4093 27.4183 50.4203 24.488C50.4203 21.0784 48.9785 19.1503 45.0822 19.1503H33.7897L33.7676 34.4227Z" fill="white"/>
<path d="M52.2474 19.1503L67.008 19.1612V22.8867L57.729 22.8758V24.9346H66.3476V28.6601L57.729 28.6492V30.7081L67.008 30.719V34.4336H52.2364L52.2474 19.1503Z" fill="white"/>
<path d="M74.8435 22.756H78.3876C79.7744 22.756 80.2917 23.2353 80.2917 24.39C80.2917 25.5447 79.7634 25.9695 78.3876 25.9695H74.8435V22.756ZM69.3403 34.4336H74.8435V29.695H80.721C84.6062 29.695 86.015 27.4292 86.015 24.4989C86.015 21.0893 84.5732 19.1721 80.6879 19.1612H69.3403V34.4336Z" fill="white"/>
<path d="M91.2651 27.963C90.7264 27.9258 90.2004 27.7832 89.7177 27.5435C89.235 27.3038 88.8052 26.9717 88.453 26.5665C88.1009 26.1612 87.8335 25.6909 87.6663 25.1827C87.4991 24.6744 87.4354 24.1384 87.4789 23.6057C87.4789 19.6514 91.0009 18.5839 95.5136 18.5839C101.699 18.5839 104.253 20.3595 104.44 23.5948H98.056C98.0684 23.3293 97.9936 23.067 97.8428 22.8471C97.692 22.6272 97.4734 22.4615 97.2196 22.3747C96.6829 22.1404 96.0998 22.0287 95.5136 22.0479C93.8736 22.0479 93.3123 22.5054 93.3123 23.1373C93.3032 23.2361 93.3148 23.3358 93.3465 23.4299C93.3782 23.5241 93.4293 23.6108 93.4965 23.6844C93.5637 23.7581 93.6456 23.8172 93.737 23.858C93.8284 23.8988 93.9274 23.9205 94.0277 23.9216L100.632 25.0109C103.394 25.4684 105.111 26.8845 105.1 29.4662C105.1 33.1917 102.338 34.9128 96.174 34.9128C91.9475 34.9128 87.3688 34.2701 87.3688 29.7712H93.9727C93.9611 29.9881 94.0092 30.204 94.1119 30.3958C94.2147 30.5877 94.3682 30.7483 94.556 30.8606C95.1445 31.1156 95.786 31.2276 96.4271 31.1874C98.1331 31.1874 98.6284 30.6754 98.6284 29.9455C98.6284 29.4989 98.3862 29.0523 97.6378 28.9216L91.2651 27.963Z" fill="white"/>
<path d="M112.332 19.183H106.85V34.4553H112.332V19.183Z" fill="white"/>
<path d="M132.671 28.5185C132.501 30.3317 131.668 32.021 130.327 33.268C128.984 34.3573 126.893 35 123.547 34.9891C120.201 34.9782 114.048 34.7277 114.048 26.8192C114.048 18.9107 120.223 18.6492 123.547 18.6492C126.871 18.6492 131.956 19.1285 132.671 25.1852H126.486C126.446 24.4474 126.116 23.7542 125.567 23.2536C125.018 22.753 124.293 22.4845 123.547 22.5054C121.346 22.5054 119.893 23.7255 119.882 26.8627C119.871 30 121.269 31.22 123.272 31.22C124.048 31.2784 124.817 31.0362 125.417 30.5444C126.016 30.0527 126.399 29.3498 126.486 28.5839L132.671 28.5185Z" fill="white"/>
<path d="M139.847 26.8301C139.847 23.7255 141.267 22.4728 143.512 22.4728C145.758 22.4728 147.167 23.7037 147.167 26.8301C147.167 29.9564 145.736 31.1874 143.501 31.1874C141.267 31.1874 139.847 29.9673 139.847 26.8301ZM134.014 26.8301C134.014 34.7386 140.178 35 143.501 35C146.825 35 152.989 34.7495 152.989 26.841C152.989 18.9325 146.825 18.6601 143.501 18.6601C140.178 18.6601 134.003 18.9107 134.003 26.8301" fill="white"/>
<path d="M25.4912 19.3028C25.8544 11.9717 19.4597 3.71459 10.7537 2.69063V2.59259C19.3497 2.59259 25.9315 10.4575 25.9205 16.6667C25.9527 17.5658 25.8526 18.4649 25.6233 19.3355L25.4912 19.3028ZM24.9739 20.2288C24.3365 20.9834 23.6208 21.6698 22.8387 22.2767C21.2978 13.464 14.749 5.75163 10.1263 3.50762L10.0272 3.57298C15.9031 8.61906 20.1928 15.2276 22.3874 22.6144C21.2845 23.4189 20.0916 24.0951 18.8324 24.6296C14.4298 19.6623 10.3574 10.1198 9.03666 4.05229H8.90458C8.90458 9.93464 13.1531 19.9237 18.3041 24.7495C17.1233 25.2135 15.894 25.546 14.6389 25.7407C9.69704 23.8126 6.186 17.6144 6.186 11.2636C6.14993 8.80306 6.66882 6.36553 7.70489 4.12854H7.60583C6.10248 6.33531 5.33291 8.95162 5.40455 11.6122C5.40455 18.7908 8.98163 24.281 13.7254 26.0022C12.0285 26.1971 10.3109 26.1161 8.64043 25.7625V25.8715C10.1829 26.4845 11.8321 26.7917 13.4943 26.7756C15.8215 26.7816 18.111 26.1931 20.1412 25.0673C22.1715 23.9414 23.874 22.3161 25.084 20.3486L24.9739 20.2288Z" fill="white"/>
<path d="M12.9114 -9.41157e-05C8.40948 -9.41157e-05 3.11502 3.21341 3.11502 6.16548C3.11502 7.25481 4.21574 8.25699 6.35114 8.25699C11.4034 8.25699 16.1035 4.82561 16.1035 2.15677C16.1035 0.751539 14.7386 -0.0218811 12.9114 -0.0218811V-9.41157e-05ZM14.7166 2.04784C14.7166 4.30274 10.3137 7.04784 6.68135 7.04784C5.06329 7.04784 4.19373 6.42692 4.19373 5.38117C4.19373 3.09359 8.5966 0.392062 12.0529 0.392062C14.2543 0.392062 14.7166 1.48139 14.7166 2.04784Z" fill="white"/>
<path d="M1.32081 7.51634C0.940708 8.18395 0.722195 8.92969 0.682434 9.69499C0.682434 11.5577 2.58654 13.3007 6.09759 13.3007C12.8555 13.3007 20.6591 8.3878 20.6591 3.82353C20.6591 1.7756 18.6999 0.664487 17.3571 0.424835V0.511981C17.9327 0.708773 18.4298 1.08214 18.7762 1.57779C19.1226 2.07344 19.3002 2.66554 19.2833 3.26797C19.2833 6.90632 12.3932 11.8627 5.53626 11.8518C2.90573 11.8518 1.25477 10.5664 1.25477 8.7037C1.25235 8.33511 1.30426 7.96814 1.40886 7.61438L1.32081 7.51634Z" fill="white"/>
<path d="M23.4437 4.19391C23.8554 4.53618 24.1847 4.96516 24.4075 5.44951C24.6303 5.93387 24.741 6.46137 24.7314 6.99347C24.7314 12.9085 15.365 18.7146 7.12116 18.7037C2.20129 18.7037 -0.0990442 16.3399 1.34595e-05 14.1612H0.0880646C0.28618 15.2506 1.88211 17.2658 6.20762 17.2658C14.4954 17.2658 23.7518 11.2636 23.8179 5.99129C23.8372 5.39344 23.7007 4.80072 23.4216 4.27016L23.4437 4.19391Z" fill="white"/>
<path d="M26.5696 9.71677C26.7395 10.2261 26.8213 10.7601 26.8118 11.2963C26.8118 17.8322 17.3242 23.4967 9.09145 23.4967C4.84297 23.4967 2.63069 21.4488 2.15741 20.6318L2.23445 20.5773C4.03754 21.8385 6.21464 22.4672 8.42005 22.3638C15.6953 22.3638 26.5696 16.9172 26.4706 9.73855L26.5696 9.71677Z" fill="white"/>
</g>
<defs>
<clipPath id="clip0">
<rect width="153" height="35" fill="white"/>
</clipPath>
</defs>
</svg>
