<svg width="126" height="29" viewBox="0 0 126 29" fill="none" xmlns="http://www.w3.org/2000/svg">
<g clip-path="url(#clip0)">
<path d="M32.3407 18.8459H35.2503C36.3924 18.8459 36.8274 19.2431 36.8274 20.1908C36.8274 21.1385 36.3924 21.5085 35.2503 21.5085H32.3407V18.8459ZM27.8087 28.5216H32.3407V24.5864H37.1628C40.3624 24.5864 41.5136 22.718 41.5226 20.2901C41.5226 17.465 40.3352 15.8674 37.1265 15.8674H27.8268L27.8087 28.5216Z" fill="#00529C"/>
<path d="M43.0273 15.8674L55.1831 15.8764V18.9633L47.5415 18.9542V20.6601H54.6392V23.747L47.5415 23.7379V25.4438L55.1831 25.4528V28.5306H43.0182L43.0273 15.8674Z" fill="#00529C"/>
<path d="M61.6359 18.855H64.5545C65.6966 18.855 66.1226 19.2521 66.1226 20.2088C66.1226 21.1656 65.6875 21.5176 64.5545 21.5176H61.6359V18.855ZM57.1038 28.5307H61.6359V24.6044H66.4761C69.6757 24.6044 70.8359 22.727 70.8359 20.2991C70.8359 17.474 69.6485 15.8855 66.4489 15.8764H57.1038V28.5307Z" fill="#00529C"/>
<path d="M75.1595 23.1693C74.7158 23.1385 74.2827 23.0204 73.8852 22.8218C73.4877 22.6232 73.1337 22.348 72.8437 22.0122C72.5537 21.6765 72.3335 21.2867 72.1958 20.8656C72.0581 20.4445 72.0056 20.0004 72.0415 19.559C72.0415 16.2826 74.942 15.3981 78.6582 15.3981C83.7523 15.3981 85.8551 16.8693 86.0092 19.55H80.752C80.7622 19.33 80.7006 19.1127 80.5764 18.9304C80.4523 18.7482 80.2722 18.6109 80.0632 18.5391C79.6212 18.3449 79.141 18.2524 78.6582 18.2683C77.3077 18.2683 76.8454 18.6474 76.8454 19.1709C76.8379 19.2528 76.8475 19.3353 76.8736 19.4134C76.8997 19.4914 76.9418 19.5632 76.9971 19.6242C77.0525 19.6853 77.1199 19.7343 77.1952 19.7681C77.2705 19.8019 77.352 19.8198 77.4346 19.8207L82.873 20.7233C85.1481 21.1024 86.5621 22.2758 86.5531 24.4149C86.5531 27.5017 84.278 28.9278 79.2021 28.9278C75.7215 28.9278 71.9508 28.3953 71.9508 24.6676H77.3893C77.3797 24.8473 77.4193 25.0262 77.5039 25.1851C77.5886 25.3441 77.715 25.4772 77.8697 25.5702C78.3543 25.7815 78.8826 25.8743 79.4106 25.841C80.8155 25.841 81.2234 25.4167 81.2234 24.812C81.2234 24.442 81.024 24.0719 80.4076 23.9636L75.1595 23.1693Z" fill="#00529C"/>
<path d="M92.5085 15.8945H87.9943V28.5487H92.5085V15.8945Z" fill="#00529C"/>
<path d="M109.259 23.6296C109.119 25.132 108.432 26.5317 107.328 27.5649C106.222 28.4675 104.5 29 101.744 28.991C98.989 28.982 93.9222 28.7744 93.9222 22.2216C93.9222 15.6689 99.0071 15.4522 101.744 15.4522C104.482 15.4522 108.669 15.8494 109.259 20.8677H104.165C104.132 20.2564 103.86 19.6821 103.408 19.2673C102.956 18.8525 102.359 18.63 101.744 18.6474C99.9317 18.6474 98.7352 19.6583 98.7261 22.2577C98.7171 24.8572 99.8682 25.868 101.518 25.868C102.157 25.9164 102.791 25.7157 103.284 25.3083C103.778 24.9008 104.094 24.3184 104.165 23.6838L109.259 23.6296Z" fill="#00529C"/>
<path d="M115.168 22.2306C115.168 19.6583 116.338 18.6203 118.187 18.6203C120.036 18.6203 121.196 19.6402 121.196 22.2306C121.196 24.821 120.018 25.841 118.178 25.841C116.338 25.841 115.168 24.8301 115.168 22.2306ZM110.364 22.2306C110.364 28.7834 115.44 29 118.178 29C120.915 29 125.991 28.7924 125.991 22.2396C125.991 15.6869 120.915 15.4612 118.178 15.4612C115.44 15.4612 110.355 15.6688 110.355 22.2306" fill="#00529C"/>
<path d="M20.9928 15.9938C21.2919 9.9194 16.0256 3.07782 8.85595 2.2294V2.14816C15.935 2.14816 21.3553 8.66481 21.3463 13.8095C21.3728 14.5546 21.2903 15.2995 21.1015 16.0209L20.9928 15.9938ZM20.5668 16.761C20.0418 17.3862 19.4524 17.955 18.8083 18.4578C17.5394 11.1559 12.1462 4.76565 8.33929 2.90633L8.25772 2.96049C13.0966 7.14152 16.6294 12.6172 18.4367 18.7376C17.5284 19.4043 16.546 19.9645 15.509 20.4074C11.8834 16.2916 8.52964 8.38501 7.44195 3.35762H7.33318C7.33318 8.23157 10.8319 16.5083 15.0739 20.5067C14.1015 20.8912 13.0892 21.1667 12.0556 21.3281C7.98579 19.7305 5.09435 14.5948 5.09435 9.33273C5.06464 7.29398 5.49196 5.27431 6.34519 3.4208H6.26362C5.02557 5.24928 4.3918 7.41708 4.4508 9.62155C4.4508 15.5696 7.39663 20.1186 11.3033 21.5447C9.90584 21.7062 8.49132 21.6391 7.11564 21.3461V21.4364C8.38593 21.9444 9.74407 22.1989 11.1129 22.1855C13.0295 22.1904 14.9149 21.7029 16.5869 20.77C18.2589 19.8372 19.6609 18.4905 20.6574 16.8603L20.5668 16.761Z" fill="#00529C"/>
<path d="M10.6329 -7.53645e-05C6.92545 -7.53645e-05 2.56531 2.66254 2.56531 5.10855C2.56531 6.01113 3.47178 6.84151 5.23034 6.84151C9.39106 6.84151 13.2617 3.99837 13.2617 1.78704C13.2617 0.622707 12.1377 -0.0181274 10.6329 -0.0181274V-7.53645e-05ZM12.1196 1.69678C12.1196 3.56513 8.49365 5.83964 5.50229 5.83964C4.16977 5.83964 3.45365 5.32516 3.45365 4.45869C3.45365 2.56326 7.07955 0.324854 9.92588 0.324854C11.7388 0.324854 12.1196 1.22744 12.1196 1.69678Z" fill="#0099D8"/>
<path d="M1.08773 6.22784C0.774708 6.781 0.594756 7.3989 0.562012 8.033C0.562012 9.57642 2.1301 11.0206 5.02155 11.0206C10.5869 11.0206 17.0134 6.9499 17.0134 3.16808C17.0134 1.47122 15.3999 0.550589 14.2941 0.35202V0.424227C14.7681 0.587283 15.1775 0.896645 15.4628 1.30733C15.748 1.71801 15.8943 2.2086 15.8803 2.70776C15.8803 5.72239 10.2062 9.82914 4.55928 9.82012C2.39296 9.82012 1.03335 8.75507 1.03335 7.21165C1.03135 6.90625 1.0741 6.60219 1.16024 6.30907L1.08773 6.22784Z" fill="#F47939"/>
<path d="M19.3065 3.47495C19.6456 3.75854 19.9168 4.11398 20.1003 4.5153C20.2838 4.91663 20.3749 5.3537 20.367 5.79458C20.367 10.6956 12.6535 15.5064 5.86449 15.4974C1.81284 15.4974 -0.081555 13.5387 2.18551e-05 11.7336H0.0725346C0.235688 12.6362 1.54998 14.3059 5.11217 14.3059C11.9374 14.3059 19.5603 9.33271 19.6147 4.96421C19.6306 4.46884 19.5183 3.97773 19.2884 3.53813L19.3065 3.47495Z" fill="#00A651"/>
<path d="M21.8808 8.05106C22.0207 8.47304 22.0881 8.91549 22.0803 9.3598C22.0803 14.7753 14.267 19.4687 7.48705 19.4687C3.98831 19.4687 2.16643 17.7719 1.77667 17.0949L1.84012 17.0498C3.32501 18.0947 5.11792 18.6157 6.93414 18.53C12.9255 18.53 21.8808 14.0171 21.7993 8.06911L21.8808 8.05106Z" fill="#ED1C24"/>
</g>
<defs>
<clipPath id="clip0">
<rect width="126" height="29" fill="white"/>
</clipPath>
</defs>
</svg>
