<svg width="20" height="20" viewBox="0 0 20 20" fill="none" xmlns="http://www.w3.org/2000/svg">
<path d="M9.99998 0.833313C7.56883 0.833313 5.23725 1.79908 3.51817 3.51817C1.79908 5.23725 0.833313 7.56883 0.833313 9.99998C0.833313 12.4311 1.79908 14.7627 3.51817 16.4818C5.23725 18.2009 7.56883 19.1666 9.99998 19.1666C12.4311 19.1666 14.7627 18.2009 16.4818 16.4818C18.2009 14.7627 19.1666 12.4311 19.1666 9.99998C19.1666 7.56883 18.2009 5.23725 16.4818 3.51817C14.7627 1.79908 12.4311 0.833313 9.99998 0.833313V0.833313ZM1.96387 10.6926H4.52035C4.56109 11.6194 4.69044 12.5402 4.90739 13.4426H2.70739C2.29713 12.5777 2.04531 11.6463 1.96387 10.6926ZM10.6926 5.19257V2.04535C11.6741 2.41836 12.4806 3.14497 12.9537 4.08239C13.1625 4.43581 13.3468 4.8035 13.5037 5.18239L10.6926 5.19257ZM13.9722 6.56757C14.2085 7.46692 14.3491 8.38868 14.3898 9.31757H10.6926V6.56757H13.9722ZM9.30739 2.04535V5.19257H6.49628C6.65339 4.81337 6.83719 4.44579 7.04628 4.09257C7.51731 3.15131 8.3241 2.42084 9.30739 2.04535ZM9.30739 6.56757V9.31757H5.62035C5.66109 8.38868 5.80165 7.46692 6.03794 6.56757H9.30739ZM4.52035 9.30739H1.96387C2.04531 8.35364 2.29713 7.42223 2.70739 6.55739H4.90739C4.69003 7.45943 4.56041 8.38039 4.52035 9.30739ZM5.62035 10.6926H9.30739V13.4426H6.03794C5.80168 12.5433 5.6617 11.6214 5.62035 10.6926ZM9.31757 14.7666V17.9139C8.33604 17.5409 7.52951 16.8143 7.05646 15.8768C6.84737 15.5236 6.66358 15.156 6.50646 14.7768L9.31757 14.7666ZM10.6926 17.9139V14.8176H13.5037C13.3466 15.1968 13.1628 15.5644 12.9537 15.9176C12.4806 16.855 11.6741 17.5816 10.6926 17.9546V17.9139ZM10.6926 13.3916V10.6416H14.3796C14.3383 11.5705 14.1983 12.4924 13.962 13.3916H10.6926ZM15.4898 10.6416H18.0463C17.9648 11.5954 17.713 12.5268 17.3028 13.3916H15.0926C15.3065 12.5055 15.4358 11.6021 15.4796 10.6926L15.4898 10.6416ZM15.4898 9.26665C15.4432 8.35641 15.3101 7.45266 15.0926 6.56757H17.2926C17.703 7.43331 17.9546 8.36424 18.0361 9.31757L15.4898 9.26665ZM16.5083 5.19257H14.6852C14.3553 4.26603 13.8772 3.39919 13.2694 2.62591C14.5368 3.19483 15.6378 4.07836 16.4676 5.19257H16.5083ZM6.73053 2.62591C6.1228 3.39919 5.64467 4.26603 5.31479 5.19257H3.53239C4.3622 4.07836 5.46311 3.19483 6.73053 2.62591ZM3.5222 14.8481H5.31479C5.64467 15.7747 6.1228 16.6415 6.73053 17.4148C5.4596 16.8373 4.35835 15.943 3.53239 14.8176L3.5222 14.8481ZM13.2592 17.4148C13.867 16.6415 14.3451 15.7747 14.675 14.8481H16.4676C15.6327 15.9474 14.5322 16.8166 13.2694 17.3741L13.2592 17.4148Z" fill="#0075B4"/>
</svg>
