<svg width="40" height="40" viewBox="0 0 40 40" fill="none" xmlns="http://www.w3.org/2000/svg">
<path d="M38.3333 20.8333V29.1666C38.3333 29.6087 38.1577 30.0326 37.8452 30.3451C37.5326 30.6577 37.1087 30.8333 36.6667 30.8333H35C35 32.1594 34.4732 33.4312 33.5355 34.3688C32.5979 35.3065 31.3261 35.8333 30 35.8333C28.6739 35.8333 27.4022 35.3065 26.4645 34.3688C25.5268 33.4312 25 32.1594 25 30.8333H15C15 32.1594 14.4732 33.4312 13.5355 34.3688C12.5979 35.3065 11.3261 35.8333 10 35.8333C8.67393 35.8333 7.40216 35.3065 6.46448 34.3688C5.5268 33.4312 5.00002 32.1594 5.00002 30.8333H3.33335C2.89132 30.8333 2.4674 30.6577 2.15483 30.3451C1.84227 30.0326 1.66668 29.6087 1.66668 29.1666V9.16663C1.66668 7.84054 2.19346 6.56877 3.13115 5.63109C4.06883 4.69341 5.3406 4.16663 6.66668 4.16663H21.6667C22.9928 4.16663 24.2645 4.69341 25.2022 5.63109C26.1399 6.56877 26.6667 7.84054 26.6667 9.16663V12.5H30C30.7762 12.5 31.5418 12.6807 32.2361 13.0278C32.9304 13.375 33.5343 13.879 34 14.5L38 19.8333C38.0488 19.9057 38.088 19.9842 38.1167 20.0666L38.2167 20.25C38.2902 20.4358 38.3298 20.6334 38.3333 20.8333ZM11.6667 30.8333C11.6667 30.5037 11.5689 30.1814 11.3858 29.9073C11.2027 29.6333 10.9424 29.4196 10.6378 29.2935C10.3333 29.1674 9.99816 29.1343 9.67486 29.1987C9.35156 29.263 9.05459 29.4217 8.8215 29.6548C8.58841 29.8879 8.42968 30.1848 8.36537 30.5081C8.30106 30.8314 8.33407 31.1666 8.46021 31.4711C8.58636 31.7756 8.79998 32.0359 9.07406 32.2191C9.34814 32.4022 9.67038 32.5 10 32.5C10.442 32.5 10.866 32.3244 11.1785 32.0118C11.4911 31.6993 11.6667 31.2753 11.6667 30.8333ZM23.3333 9.16663C23.3333 8.7246 23.1578 8.30068 22.8452 7.98812C22.5326 7.67556 22.1087 7.49996 21.6667 7.49996H6.66668C6.22465 7.49996 5.80073 7.67556 5.48817 7.98812C5.17561 8.30068 5.00002 8.7246 5.00002 9.16663V27.5H6.30001C6.76865 26.9844 7.33987 26.5724 7.97704 26.2905C8.61421 26.0086 9.30327 25.863 10 25.863C10.6968 25.863 11.3858 26.0086 12.023 26.2905C12.6602 26.5724 13.2314 26.9844 13.7 27.5H23.3333V9.16663ZM26.6667 19.1666H33.3333L31.3333 16.5C31.1781 16.293 30.9768 16.125 30.7454 16.0093C30.5139 15.8935 30.2588 15.8333 30 15.8333H26.6667V19.1666ZM31.6667 30.8333C31.6667 30.5037 31.5689 30.1814 31.3858 29.9073C31.2027 29.6333 30.9424 29.4196 30.6378 29.2935C30.3333 29.1674 29.9982 29.1343 29.6749 29.1987C29.3516 29.263 29.0546 29.4217 28.8215 29.6548C28.5884 29.8879 28.4297 30.1848 28.3654 30.5081C28.3011 30.8314 28.3341 31.1666 28.4602 31.4711C28.5864 31.7756 28.8 32.0359 29.0741 32.2191C29.3481 32.4022 29.6704 32.5 30 32.5C30.442 32.5 30.866 32.3244 31.1785 32.0118C31.4911 31.6993 31.6667 31.2753 31.6667 30.8333ZM35 22.5H26.6667V27.1333C27.6503 26.2542 28.9415 25.7995 30.2589 25.8682C31.5763 25.9368 32.8131 26.5234 33.7 27.5H35V22.5Z" fill="#0075B4"/>
</svg>
