<svg width="20" height="20" viewBox="0 0 20 20" fill="none" xmlns="http://www.w3.org/2000/svg">
<path d="M19.755 4.3246C19.0591 4.63293 18.3116 4.84127 17.5258 4.93543C18.3366 4.45026 18.9433 3.68665 19.2325 2.7871C18.4707 3.23959 17.6369 3.55809 16.7675 3.72877C16.1828 3.10449 15.4084 2.6907 14.5644 2.55166C13.7205 2.41262 12.8542 2.55609 12.1002 2.95981C11.3461 3.36353 10.7465 4.0049 10.3943 4.78435C10.0421 5.5638 9.95709 6.43772 10.1525 7.27043C8.60889 7.19293 7.09884 6.79172 5.72033 6.09285C4.34183 5.39398 3.12568 4.41307 2.15081 3.21377C1.81748 3.78877 1.62581 4.45543 1.62581 5.16543C1.62544 5.80459 1.78284 6.43397 2.08405 6.99771C2.38525 7.56145 2.82095 8.04213 3.35248 8.3971C2.73604 8.37748 2.13321 8.21092 1.59415 7.91126V7.96126C1.59408 8.85772 1.90417 9.72658 2.4718 10.4204C3.03942 11.1143 3.82962 11.5904 4.70831 11.7679C4.13647 11.9227 3.53693 11.9455 2.95498 11.8346C3.20289 12.6059 3.68581 13.2805 4.33612 13.7637C4.98643 14.247 5.77158 14.5147 6.58165 14.5296C5.20651 15.6091 3.50822 16.1947 1.75998 16.1921C1.4503 16.1922 1.14088 16.1741 0.833313 16.1379C2.60788 17.2789 4.6736 17.8844 6.78331 17.8821C13.925 17.8821 17.8291 11.9671 17.8291 6.8371C17.8291 6.67043 17.825 6.5021 17.8175 6.33543C18.5769 5.78624 19.2324 5.10618 19.7533 4.3271L19.755 4.3246Z" fill="#0075B4"/>
</svg>
