<svg width="184" height="70" viewBox="0 0 184 70" fill="none" xmlns="http://www.w3.org/2000/svg">
<circle cx="5" cy="5" r="5" fill="#FFDA00"/>
<circle cx="5" cy="35" r="5" fill="#FFDA00"/>
<circle cx="5" cy="65" r="5" fill="#FFDA00"/>
<circle cx="35" cy="5" r="5" fill="#FFDA00"/>
<circle cx="35" cy="35" r="5" fill="#FFDA00"/>
<circle cx="35" cy="65" r="5" fill="#FFDA00"/>
<circle cx="65" cy="5" r="5" fill="#FFDA00"/>
<circle cx="65" cy="35" r="5" fill="#FFDA00"/>
<circle cx="65" cy="65" r="5" fill="#FFDA00"/>
<circle cx="95" cy="5" r="5" fill="#FFDA00"/>
<circle cx="95" cy="35" r="5" fill="#FFDA00"/>
<circle cx="95" cy="65" r="5" fill="#FFDA00"/>
<circle cx="125" cy="5" r="5" fill="#FFDA00"/>
<circle cx="125" cy="35" r="5" fill="#FFDA00"/>
<circle cx="125" cy="65" r="5" fill="#FFDA00"/>
<circle cx="155" cy="5" r="5" fill="#FFDA00"/>
<circle cx="155" cy="35" r="5" fill="#FFDA00"/>
<circle cx="155" cy="65" r="5" fill="#FFDA00"/>
<circle cx="185" cy="5" r="5" fill="#FFDA00"/>
<circle cx="185" cy="35" r="5" fill="#FFDA00"/>
<circle cx="185" cy="65" r="5" fill="#FFDA00"/>
</svg>
